<svg xmlns="http://www.w3.org/2000/svg" viewBox="0 0 129.69 125.46"><defs><style>.cls-1,.cls-3{fill:#ca907e;}.cls-1,.cls-2{stroke:#ca907e;}.cls-1,.cls-2,.cls-6{stroke-miterlimit:10;}.cls-2,.cls-6{fill:none;}.cls-2{stroke-width:5px;}.cls-4{font-size:12.45px;font-family:MyriadPro-Regular, Myriad Pro;letter-spacing:0.1em;}.cls-4,.cls-5{fill:#fff;}.cls-6{stroke:#fff;}</style></defs><g id="Layer_2" data-name="Layer 2"><g id="Layer_1-2" data-name="Layer 1"><ellipse class="cls-1" cx="64.84" cy="111.87" rx="64.34" ry="13.09"/><path class="cls-2" d="M108.75,65.37s4.12-10.4,13.31-4.23S105,90,105,90s-2,2.37-6.43,1.1"/><path class="cls-3" d="M64.84,54.66l48.47-1c0,.35,0,.7,0,1,0,30.07-21.88,54.81-48.48,54.81S16.37,84.73,16.37,54.66v-.15Z"/><path class="cls-3" d="M44.29,0a19.37,19.37,0,0,1,5.37,12.63c.12,4.77-2,9.4-4.88,13.07-.62.93-1.32,1.81-1.86,2.77a19.16,19.16,0,0,0-1.39,3c-.18.51-.41,1-.55,1.54s-.23,1-.37,1.58a12.38,12.38,0,0,0-.25,1.6l-.09.8c0,.27,0,.54,0,.81a21.55,21.55,0,0,0,4,12.52l-.15.13A17.93,17.93,0,0,1,38.27,37.8c0-.31,0-.61,0-.92l.09-.91a12.27,12.27,0,0,1,.23-1.81c.14-.59.31-1.18.46-1.77s.45-1.12.66-1.69a21.93,21.93,0,0,1,1.72-3.16c.64-1,1.43-1.91,2.13-2.86s1.39-1.75,2-2.67l.85-1.44.42-.72.33-.77.64-1.54.44-1.61a9.09,9.09,0,0,0,.29-1.64,9.22,9.22,0,0,0,.13-1.66A18.71,18.71,0,0,0,44.14.14Z"/><path class="cls-3" d="M62.85,0a19.33,19.33,0,0,1,5.38,12.63c.12,4.77-2,9.4-4.88,13.07-.62.93-1.32,1.81-1.86,2.77a19.21,19.21,0,0,0-1.4,3c-.18.51-.41,1-.55,1.54s-.23,1-.36,1.58a9.68,9.68,0,0,0-.25,1.6l-.1.8c0,.27,0,.54,0,.81a21.7,21.7,0,0,0,4,12.52l-.14.13A17.94,17.94,0,0,1,56.83,37.8c0-.31,0-.61,0-.92L56.9,36a11.08,11.08,0,0,1,.24-1.81c.14-.59.3-1.18.46-1.77s.44-1.12.66-1.69A21.93,21.93,0,0,1,60,27.54c.64-1,1.42-1.91,2.13-2.86s1.38-1.75,2-2.67L65,20.57l.42-.72.32-.77.65-1.54.43-1.61a9.09,9.09,0,0,0,.29-1.64,8.4,8.4,0,0,0,.14-1.66A18.71,18.71,0,0,0,62.71.14Z"/><path class="cls-3" d="M85.8,0a19.33,19.33,0,0,1,5.38,12.63c.12,4.77-2,9.4-4.89,13.07-.61.93-1.31,1.81-1.85,2.77a19.21,19.21,0,0,0-1.4,3c-.18.51-.41,1-.55,1.54s-.23,1-.36,1.58a9.68,9.68,0,0,0-.25,1.6l-.1.8c0,.27,0,.54,0,.81a21.7,21.7,0,0,0,4,12.52l-.14.13A17.94,17.94,0,0,1,79.78,37.8c0-.31,0-.61,0-.92l.09-.91a11.08,11.08,0,0,1,.24-1.81c.14-.59.3-1.18.46-1.77s.44-1.12.66-1.69a21.87,21.87,0,0,1,1.71-3.16c.65-1,1.43-1.91,2.14-2.86s1.38-1.75,2-2.67l.84-1.44.43-.72.32-.77.65-1.54.43-1.61A9.09,9.09,0,0,0,90,14.29a8.4,8.4,0,0,0,.14-1.66A18.71,18.71,0,0,0,85.66.14Z"/><g id="Text"><text class="cls-4" transform="translate(66.57 73.54)">FFEE</text><text class="cls-4" transform="translate(42.17 86.27)">SH</text><text class="cls-4" transform="translate(50.12 73.44)">C</text><text class="cls-4" transform="translate(66.57 86.34)">P</text></g><path class="cls-5" d="M62.44,65.68a2.8,2.8,0,0,1,1.12,1.84A3.32,3.32,0,0,1,63,69.8a1.8,1.8,0,0,0-.21.7,3.22,3.22,0,0,1-.1.57,5.44,5.44,0,0,0-.23,1.71l-.15.14a2.08,2.08,0,0,1-1.62-1.84,2,2,0,0,1,.27-1.33,5.16,5.16,0,0,1,.8-1,2.47,2.47,0,0,0,.82-1.27,2.39,2.39,0,0,0-.27-1.7Z"/><ellipse class="cls-6" cx="62.37" cy="69.29" rx="3.22" ry="4.27"/><path class="cls-5" d="M62.44,78.32a2.78,2.78,0,0,1,1.12,1.84A3.32,3.32,0,0,1,63,82.44a1.75,1.75,0,0,0-.21.7,3.39,3.39,0,0,1-.1.57,5.39,5.39,0,0,0-.23,1.71l-.15.14a2.08,2.08,0,0,1-1.62-1.84,2,2,0,0,1,.27-1.33,5.16,5.16,0,0,1,.8-1,2.47,2.47,0,0,0,.82-1.27,2.39,2.39,0,0,0-.27-1.7Z"/><ellipse class="cls-6" cx="62.37" cy="81.92" rx="3.22" ry="4.27"/></g></g></svg>