<svg id="Layer_1" data-name="Layer 1" xmlns="http://www.w3.org/2000/svg" viewBox="0 0 841.89 595.28"><defs><style>.cls-1,.cls-2{fill:#fff;}.cls-1,.cls-4{stroke:#000;}.cls-1{stroke-linejoin:round;stroke-width:4px;}.cls-3{font-size:12.45px;font-family:MyriadPro-Regular, Myriad Pro;letter-spacing:0.1em;}.cls-4{fill:none;stroke-miterlimit:10;}</style></defs><ellipse class="cls-1" cx="433.74" cy="345.22" rx="64.34" ry="13.09"/><path class="cls-2" d="M483.88,289.56s3.63-10.58,13.1-4.84-15.71,29.61-15.71,29.61-1.93,2.46-6.37,1.4"/><path d="M483.88,289.56a11.09,11.09,0,0,1,3.47-5.81,7.78,7.78,0,0,1,3.31-1.55,5.76,5.76,0,0,1,.93-.11,5.9,5.9,0,0,1,.94,0l.92.1a3.79,3.79,0,0,1,.9.19,12.51,12.51,0,0,1,1.73.57c.54.26,1.07.49,1.63.78a5.44,5.44,0,0,1,2.54,3.33,8.69,8.69,0,0,1,0,3.93,19.44,19.44,0,0,1-1.21,3.39,34,34,0,0,1-3.5,5.9,61.36,61.36,0,0,1-4.21,5.26,85.86,85.86,0,0,1-9.58,9.3l.06-.07a5,5,0,0,1-1.65,1.08,6.32,6.32,0,0,1-1.79.43,8.18,8.18,0,0,1-1.79-.07,10.69,10.69,0,0,1-1.68-.46,9.73,9.73,0,0,0,1.7,0,7.31,7.31,0,0,0,1.63-.27,6.44,6.44,0,0,0,1.44-.64,3.89,3.89,0,0,0,1.07-1l.06-.07c2.92-3.27,5.74-6.65,8.45-10.05,1.34-1.72,2.65-3.44,3.88-5.21a45,45,0,0,0,3.25-5.45c.88-1.85,1.56-3.87,1.26-5.43a2.87,2.87,0,0,0-1.25-1.87c-.4-.26-.86-.51-1.29-.78a10.83,10.83,0,0,0-1.36-.6,10.14,10.14,0,0,0-1.41-.38,4.27,4.27,0,0,0-.71-.07,4.36,4.36,0,0,0-.72,0,6.94,6.94,0,0,0-2.78.87A12.31,12.31,0,0,0,483.88,289.56Z"/><path class="cls-2" d="M433.74,339.83c-27.83,0-50.48-25.49-50.48-56.82v-.17a2,2,0,0,1,2-2l48.49.15L482.21,280a2,2,0,0,1,1.38.55,2,2,0,0,1,.62,1.41c0,.37,0,.73,0,1.09C484.22,314.34,461.57,339.83,433.74,339.83Z"/><path d="M482.21,282c0,.35,0,.7,0,1.05,0,30.07-21.89,54.82-48.48,54.82S385.26,313.08,385.26,283v-.15l48.48.15L482.21,282m0-4h-.09L433.7,279l-48.42-.15h0a4,4,0,0,0-4,4V283a62.2,62.2,0,0,0,15.27,41.33c10,11.28,23.19,17.49,37.21,17.49S461,335.62,471,324.34A62.2,62.2,0,0,0,486.22,283c0-.37,0-.75,0-1.12a4,4,0,0,0-4-3.93Z"/><path d="M413.18,228.35A19.33,19.33,0,0,1,418.56,241c.12,4.78-2,9.4-4.88,13.07-.62.93-1.32,1.81-1.86,2.77a19.21,19.21,0,0,0-1.4,3c-.17.51-.41,1-.55,1.54s-.23,1.06-.36,1.58a9.68,9.68,0,0,0-.25,1.6l-.1.8c0,.27,0,.54,0,.81a21.7,21.7,0,0,0,4,12.52l-.14.13a17.94,17.94,0,0,1-5.88-12.63c0-.31,0-.61,0-.92l.08-.91a13.8,13.8,0,0,1,.24-1.81c.14-.59.3-1.18.46-1.77s.44-1.12.66-1.69a21.93,21.93,0,0,1,1.72-3.16c.64-1,1.42-1.91,2.13-2.86s1.39-1.75,2-2.67l.85-1.44.42-.72.32-.77.65-1.54.43-1.61a10.07,10.07,0,0,0,.3-1.64,9.22,9.22,0,0,0,.13-1.66A18.71,18.71,0,0,0,413,228.49Z"/><path d="M431.75,228.35A19.38,19.38,0,0,1,437.13,241c.11,4.78-2,9.4-4.89,13.07-.61.93-1.31,1.81-1.86,2.77a19.16,19.16,0,0,0-1.39,3c-.18.51-.41,1-.55,1.54s-.23,1.06-.37,1.58a10.84,10.84,0,0,0-.24,1.6l-.1.8c0,.27,0,.54,0,.81a21.55,21.55,0,0,0,4,12.52l-.15.13a17.93,17.93,0,0,1-5.87-12.63c0-.31,0-.61,0-.92l.09-.91a11.08,11.08,0,0,1,.24-1.81c.14-.59.3-1.18.45-1.77s.45-1.12.67-1.69a21.87,21.87,0,0,1,1.71-3.16c.64-1,1.43-1.91,2.14-2.86s1.38-1.75,2-2.67l.84-1.44.42-.72.33-.77.64-1.54.44-1.61a9.09,9.09,0,0,0,.29-1.64,8.4,8.4,0,0,0,.14-1.66,18.81,18.81,0,0,0-4.52-12.49Z"/><path d="M452.53,228.35A19.37,19.37,0,0,1,457.9,241c.12,4.78-2,9.4-4.88,13.07-.62.93-1.32,1.81-1.86,2.77a19.16,19.16,0,0,0-1.39,3c-.18.51-.42,1-.55,1.54s-.24,1.06-.37,1.58a9.68,9.68,0,0,0-.25,1.6l-.1.8c0,.27,0,.54,0,.81a21.61,21.61,0,0,0,4,12.52l-.14.13a17.89,17.89,0,0,1-5.87-12.63c0-.31,0-.61,0-.92l.08-.91a13.8,13.8,0,0,1,.24-1.81c.14-.59.31-1.18.46-1.77s.44-1.12.66-1.69a21.93,21.93,0,0,1,1.72-3.16c.64-1,1.43-1.91,2.13-2.86s1.39-1.75,2-2.67l.85-1.44.42-.72.32-.77.65-1.54.44-1.61a9.09,9.09,0,0,0,.29-1.64,9.22,9.22,0,0,0,.13-1.66,18.71,18.71,0,0,0-4.52-12.49Z"/><g id="Text"><text class="cls-3" transform="translate(435.47 301.89)">FFEE</text><text class="cls-3" transform="translate(411.07 314.62)">SH</text><text class="cls-3" transform="translate(419.02 302.79)">C</text><text class="cls-3" transform="translate(435.47 314.69)">P</text></g><path d="M431.33,294a2.81,2.81,0,0,1,1.13,1.84,3.27,3.27,0,0,1-.59,2.28,1.78,1.78,0,0,0-.2.7,2.5,2.5,0,0,1-.11.57,6.11,6.11,0,0,0-.23,1.71l-.14.14a2.15,2.15,0,0,1-1.35-3.17,4.49,4.49,0,0,1,.8-1,2.47,2.47,0,0,0,.82-1.27,2.39,2.39,0,0,0-.27-1.7Z"/><ellipse class="cls-4" cx="431.26" cy="297.64" rx="3.22" ry="4.27"/><path d="M431.33,306.67a2.81,2.81,0,0,1,1.13,1.84,3.27,3.27,0,0,1-.59,2.28,1.73,1.73,0,0,0-.2.7,2.62,2.62,0,0,1-.11.57,6,6,0,0,0-.23,1.71l-.14.14a2.15,2.15,0,0,1-1.35-3.17,4.49,4.49,0,0,1,.8-1,2.47,2.47,0,0,0,.82-1.27,2.39,2.39,0,0,0-.27-1.7Z"/><ellipse class="cls-4" cx="431.26" cy="310.27" rx="3.22" ry="4.27"/></svg>